<svg version="1.1" xmlns="http://www.w3.org/2000/svg" xmlns:xlink="http://www.w3.org/1999/xlink" width="376" height="326" viewBox="0 0 376 326"><defs/><g transform="matrix(1,0,0,1,0,0)"><g><g><g><path fill="none" stroke="#d3d3d3" paint-order="fill stroke markers" d=" M 0 0 L 1200 0" stroke-miterlimit="10" stroke-opacity="0.8" stroke-dasharray="5"/></g><g><path fill="none" stroke="#d3d3d3" paint-order="fill stroke markers" d=" M 0 0 L 0 800" stroke-miterlimit="10" stroke-opacity="0.8" stroke-dasharray="5"/></g></g><g id="_C9623926-6D30-4123-98DE-DB1581D6C29B" transform="matrix(1,0,0,1,137,50)"><g><path fill="none" stroke="none"/></g><g transform="matrix(1,0,0,1,0,0)"><path fill="none" stroke="#000000" id="_C9623926-6D30-4123-98DE-DB1581D6C29B?shapeType=BORDER&amp;renderType=STROKE" paint-order="fill stroke markers" d=" M 0 0 L 100 0 L 100 50 L 0 50 L 0 0 Z Z" stroke-miterlimit="10" stroke-width="1.5" stroke-dasharray=""/></g><g transform="matrix(1,0,0,1,32.36445617675781,18.5)"><text fill="#000000" stroke="none" font-family="Open Sans" font-size="10pt" font-style="normal" font-weight="normal" text-decoration="normal" x="17.635543823242188" y="10.4" text-anchor="middle" dominant-baseline="alphabetic">result</text></g></g><g id="_DAC4E55D-1677-4D44-9FAF-2F7B04DF879E" transform="matrix(1,0,0,1,50,225)"><g><path fill="none" stroke="none"/></g><g transform="matrix(0.9345794392523364,0,0,0.8771929824561403,0,0)"><g transform="matrix(1,0,0,1,0,0)"><path fill="none" stroke="#000000" id="_DAC4E55D-1677-4D44-9FAF-2F7B04DF879E?shapeType=BORDER&amp;renderType=STROKE" paint-order="fill stroke markers" d=" M 0 0 M 1.5 30 C 1.5 14.3 14.3 1.5 30 1.5 L 80 1.5 C 95.7 1.5 108.5 14.3 108.5 30 C 108.5 45.7 95.7 58.5 80 58.5 L 30 58.5 C 14.3 58.5 1.5 45.7 1.5 30 Z" stroke-miterlimit="10" stroke-width="1.5" stroke-dasharray=""/></g></g><g transform="matrix(1,0,0,1,46.293251037597656,18.5)"><text fill="#000000" stroke="none" font-family="Open Sans" font-size="10pt" font-style="normal" font-weight="normal" text-decoration="normal" x="3.7067489624023438" y="10.4" text-anchor="middle" dominant-baseline="alphabetic">a</text></g></g><g id="_386FEE83-6D10-42E2-9BA6-A92CDDECD90B" transform="matrix(1,0,0,1,225,225)"><g><path fill="none" stroke="none"/></g><g transform="matrix(0.9345794392523364,0,0,0.8771929824561403,0,0)"><g transform="matrix(1,0,0,1,0,0)"><path fill="none" stroke="#000000" id="_386FEE83-6D10-42E2-9BA6-A92CDDECD90B?shapeType=BORDER&amp;renderType=STROKE" paint-order="fill stroke markers" d=" M 0 0 M 1.5 30 C 1.5 14.3 14.3 1.5 30 1.5 L 80 1.5 C 95.7 1.5 108.5 14.3 108.5 30 C 108.5 45.7 95.7 58.5 80 58.5 L 30 58.5 C 14.3 58.5 1.5 45.7 1.5 30 Z" stroke-miterlimit="10" stroke-width="1.5" stroke-dasharray=""/></g></g><g transform="matrix(1,0,0,1,45.915740966796875,18.5)"><text fill="#000000" stroke="none" font-family="Open Sans" font-size="10pt" font-style="normal" font-weight="normal" text-decoration="normal" x="4.084259033203125" y="10.4" text-anchor="middle" dominant-baseline="alphabetic">b</text></g></g><g id="_38A5FA84-EE60-4730-ACFF-16709B2C1604#_99FB7B03-2EBB-4C3F-8841-7734072D79B5"><g><path fill="none" stroke="#000000" paint-order="fill stroke markers" d=" M 114.5 225 L 187 100" stroke-miterlimit="10" stroke-dasharray=""/></g><g transform="matrix(-0.5017180897718461,0.8650311892618033,-0.8650311892618033,-0.5017180897718461,114.5,225)"/><g transform="matrix(0.8650311892618034,0.5017180897718458,-0.5017180897718458,0.8650311892618034,182.67484405369098,97.49140955114078)"><path fill="#000000" stroke="#000000" paint-order="fill stroke markers" d=" M 10 15 L 0 15 L 5 0 Z" stroke-miterlimit="10" stroke-dasharray=""/></g><g transform="matrix(1,0,0,1,123.15031189261802,157.48281910228152)"/></g><g id="_38A5FA84-EE60-4730-ACFF-16709B2C1604#_477D5CBB-631F-456A-BA12-1F7396226E42"><g><path fill="none" stroke="#000000" paint-order="fill stroke markers" d=" M 260.3333333333333 225 L 187 100" stroke-miterlimit="10" stroke-dasharray=""/></g><g transform="matrix(0.5060146113828585,0.8625249057662362,-0.8625249057662362,0.5060146113828585,260.3333333333333,225)"/><g transform="matrix(0.8625249057662362,-0.5060146113828586,0.5060146113828586,0.8625249057662362,182.68737547116882,102.53007305691429)"><path fill="#000000" stroke="#000000" paint-order="fill stroke markers" d=" M 10 15 L 0 15 L 5 0 Z" stroke-miterlimit="10" stroke-dasharray=""/></g><g transform="matrix(1,0,0,1,195.6252490576624,157.43985388617142)"/></g><g transform="matrix(1,0,0,1,137,50)"/><g transform="matrix(1,0,0,1,50,225)"/><g transform="matrix(1,0,0,1,225,225)"/></g></g></svg>