<svg version="1.1" xmlns="http://www.w3.org/2000/svg" xmlns:xlink="http://www.w3.org/1999/xlink" width="784" height="602" viewBox="0 0 784 602"><defs/><g transform="matrix(1,0,0,1,0,0)"><g><g><g><path fill="none" stroke="#d3d3d3" paint-order="fill stroke markers" d=" M 0 0 L 1200 0" stroke-miterlimit="10" stroke-opacity="0.8" stroke-dasharray="5"/></g><g><path fill="none" stroke="#d3d3d3" paint-order="fill stroke markers" d=" M 0 0 L 0 800" stroke-miterlimit="10" stroke-opacity="0.8" stroke-dasharray="5"/></g></g><g id="_X" bpmn2nodeid="_X" transform="matrix(1,0,0,1,161.5,360)"><g><path fill="none" stroke="none"/></g><g transform="matrix(1,0,0,1,0,0)"><path fill="#fafafa" stroke="none" id="_X?shapeType=BACKGROUND" paint-order="stroke fill markers" d=" M 2 0 L 570 0 L 570 0 A 2 2 0 0 1 572 2 L 572 190 L 572 190 A 2 2 0 0 1 570 192 L 2 192 L 2 192 A 2 2 0 0 1 0 190 L 0 2 L 0 2.0000000000000004 A 2 2 0 0 1 1.9999999999999996 0 Z"/></g><g transform="matrix(1,0,0,1,0,0)"><path fill="none" stroke="#393f44" id="_X?shapeType=BORDER&amp;renderType=STROKE" paint-order="fill stroke markers" d=" M 2 0 L 570 0 L 570 0 A 2 2 0 0 1 572 2 L 572 190 L 572 190 A 2 2 0 0 1 570 192 L 2 192 L 2 192 A 2 2 0 0 1 0 190 L 0 2 L 0 2.0000000000000004 A 2 2 0 0 1 1.9999999999999996 0 Z" stroke-miterlimit="10" stroke-width="2" stroke-dasharray="2,2"/></g><g transform="matrix(1,0,0,1,-10.212499999999977,-33.775000000000006)"><g transform="matrix(0.05,0,0,0.05,285,209)"><g transform="matrix(1,0,0,1,0,0)"><path fill="none" stroke="black" id="_Xundefined" paint-order="fill stroke markers" d=" M 0 0 M 421.5 159.5 C 405.6 156.4 390.1 165.8 385.1 180.8 L 385.1 180.8 L 385.20000000000005 180.5 C 385.20000000000005 180.6 380.90000000000003 192.3 370.30000000000007 203.4 C 357.30000000000007 217 341.1000000000001 223.6 320.70000000000005 223.6 C 296.6 223.6 271.80000000000007 200.6 245.60000000000005 176.2 C 213.30000000000007 146.2 176.80000000000007 112.1 128.20000000000005 112.1 C 98.70000000000005 112.1 57.00000000000004 124.89999999999999 25.30000000000004 185.7 C 8.7 217.6 2.3 249.2 2 250.6 L 2 250.7 C 1.9 251.1 1.8 251.6 1.8 252 C 1.8 252.1 1.8 252.2 1.8 252.3 C 1.7 252.70000000000002 1.7 253.20000000000002 1.6 253.60000000000002 C 1.6 253.70000000000002 1.6 253.8 1.6 253.90000000000003 C 1.6 254.30000000000004 1.5 254.80000000000004 1.5 255.20000000000005 C 1.5 255.30000000000004 1.5 255.40000000000003 1.5 255.50000000000006 C 1.5 255.90000000000006 1.5 256.30000000000007 1.5 256.6000000000001 C 1.5 256.80000000000007 1.5 256.9000000000001 1.5 257.1000000000001 C 1.5 257.4000000000001 1.5 257.7000000000001 1.5 258.00000000000006 C 1.5 258.20000000000005 1.5 258.50000000000006 1.5 258.70000000000005 C 1.5 258.90000000000003 1.5 259.20000000000005 1.6 259.40000000000003 C 1.6 259.70000000000005 1.6 260.00000000000006 1.7000000000000002 260.3 C 1.7000000000000002 260.40000000000003 1.7000000000000002 260.6 1.8000000000000003 260.7 C 1.8000000000000003 261.09999999999997 1.9000000000000004 261.5 2.0000000000000004 261.9 L 2.0000000000000004 262 C 4.1000000000000005 274.7 13.9 285.5 27.3 288.1 C 29.400000000000002 288.5 31.5 288.70000000000005 33.6 288.70000000000005 C 47.2 288.70000000000005 59.5 280.00000000000006 63.900000000000006 267.00000000000006 C 64.5 265.6000000000001 68.80000000000001 255.60000000000005 77.60000000000001 245.80000000000007 C 90.9 231.10000000000008 107.5 224.00000000000006 128.4 224.00000000000006 C 151.8 224.00000000000006 176.3 246.80000000000007 202.2 270.90000000000003 C 234.7 301.20000000000005 271.6 335.5 320.9 335.5 C 345.5 335.5 367.79999999999995 327 387.4 310.2 C 401.4 298.2 413.79999999999995 281.9 424.09999999999997 261.9 C 440.59999999999997 229.99999999999997 446.79999999999995 198.29999999999998 446.99999999999994 196.89999999999998 C 450.3 179.6 438.9 162.8 421.5 159.5 Z" stroke-miterlimit="10" stroke-dasharray=""/></g></g></g><g transform="matrix(1,0,0,1,217.7109375,0)"><text fill="#000000" stroke="none" font-family="Open Sans" font-size="12pt" font-style="normal" font-weight="normal" text-decoration="normal" x="68.2890625" y="12" text-anchor="middle" dominant-baseline="alphabetic">Exception Handler</text></g><g id="_X-1" bpmn2nodeid="_X-1" transform="matrix(1,0,0,1,40,66)"><g><path fill="none" stroke="none"/></g><g transform="matrix(0.125,0,0,0.125,0,0)"><g transform="matrix(1,0,0,1,0,0)"><path fill="#e8fae6" stroke="none" id="_X-1?shapeType=BACKGROUND" paint-order="stroke fill markers" d=" M 0 0 M 444 224 C 444 263.9 434.2 300.8 414.4 334.5 C 394.7 368.2 368 394.9 334.4 414.5 C 300.79999999999995 434.1 263.9 444 224 444 C 184.10000000000002 444 147.2 434.2 113.5 414.4 C 79.8 394.7 53.1 368 33.5 334.4 C 13.899999999999999 300.79999999999995 4 263.9 4 224 C 4 184.10000000000002 13.8 147.2 33.6 113.5 C 53.400000000000006 79.80000000000001 80.1 53.1 113.6 33.5 C 147.1 13.899999999999999 184.1 4 224 4 C 263.9 4 300.8 13.8 334.5 33.6 C 368.2 53.400000000000006 394.9 80.1 414.5 113.6 C 434.1 147.1 444 184.1 444 224 Z"/></g><g><g transform="matrix(1,0,0,1,0,0)"><g transform="matrix(1,0,0,1,0,0)"><path fill="#4aa241" stroke="none" id="_X-1?shapeType=BORDER&amp;renderType=FILL" paint-order="stroke fill markers" d=" M 0 0 M 224 0 C 100.3 0 0 100.3 0 224 C 0 347.7 100.3 448 224 448 C 347.7 448 448 347.7 448 224 C 448 100.30000000000001 347.7 0 224 0 Z M 0 0 M 224 432 C 109.1 432 16 338.9 16 224 C 16 109.10000000000002 109.1 16 224 16 C 338.9 16 432 109.1 432 224 C 432 338.9 338.9 432 224 432 Z"/></g></g></g><g><g transform="matrix(1,0,0,1,0,0)"><g transform="matrix(1,0,0,1,0,0)"><path fill="#4aa241" stroke="none" id="_X-1undefined" paint-order="stroke fill markers" d=" M 0 0 M 177 155.9 C 191.8 170.8 222.6 202.2 244.8 224.7 L 255.3 235.39999999999998 L 266.6 225.59999999999997 L 298.20000000000005 198.19999999999996 C 285.80000000000007 232.69999999999996 273.00000000000006 268.09999999999997 266.70000000000005 285.09999999999997 L 204 217.4 L 193.6 206.20000000000002 L 181.9 216.20000000000002 L 148 245.20000000000002 C 159.3 210.1 171.3 173.4 177 155.9 M 173.5 132.7 C 172.8 132.7 172.1 132.79999999999998 171.3 133.1 C 168 134.29999999999998 167.5 135.9 165.60000000000002 139.9 C 164.00000000000003 143.3 120.40000000000002 278.3 120.40000000000002 278.3 C 120.40000000000002 278.3 119.10000000000002 282.8 122.90000000000002 284.40000000000003 C 123.50000000000001 284.70000000000005 124.10000000000002 284.8 124.70000000000002 284.8 C 127.50000000000001 284.8 129.4 282.2 129.4 282.2 L 192.3 228.29999999999998 L 263.9 305.4 C 266 307.4 267.9 308.7 270.09999999999997 308.7 C 270.79999999999995 308.7 271.49999999999994 308.5 272.29999999999995 308.3 C 275.59999999999997 307.1 276.4 305.1 277.99999999999994 301.5 C 279.49999999999994 298.1 328.09999999999997 163.1 328.09999999999997 163.1 C 328.09999999999997 163.1 329.4 158.6 325.7 157 C 325.09999999999997 156.7 324.5 156.6 323.8 156.6 C 321 156.6 319.2 159.2 319.2 159.2 L 256.3 213.5 C 256.3 213.5 182.70000000000002 138.6 179.8 136 C 177.6 134 175.7 132.7 173.5 132.7 L 173.5 132.7 Z"/></g></g></g></g><g transform="matrix(1,0,0,1,-55.3359375,61)"><text fill="#000000" stroke="none" font-family="Open Sans" font-size="12pt" font-style="normal" font-weight="normal" text-decoration="normal" x="83.3359375" y="12" text-anchor="middle" dominant-baseline="alphabetic">Capture de l'Exception</text></g></g><g id="_X-2" bpmn2nodeid="_X-2" transform="matrix(1,0,0,1,210.5,47)"><g><path fill="none" stroke="none"/></g><g transform="matrix(1,0,0,1,0,0)"><path fill="#ffffff" stroke="none" id="_X-2?shapeType=BACKGROUND" paint-order="stroke fill markers" d=" M 2 0 L 144 0 L 144 0 A 2 2 0 0 1 146 2 L 146 91 L 146 91 A 2 2 0 0 1 144 93 L 2 93 L 2 93 A 2 2 0 0 1 0 91 L 0 2 L 0 2.0000000000000004 A 2 2 0 0 1 1.9999999999999996 0 Z"/></g><g transform="matrix(1,0,0,1,0,0)"><path fill="none" stroke="#000000" id="_X-2?shapeType=BORDER&amp;renderType=STROKE" paint-order="fill stroke markers" d=" M 2 0 L 144 0 L 144 0 A 2 2 0 0 1 146 2 L 146 91 L 146 91 A 2 2 0 0 1 144 93 L 2 93 L 2 93 A 2 2 0 0 1 0 91 L 0 2 L 0 2.0000000000000004 A 2 2 0 0 1 1.9999999999999996 0 Z" stroke-miterlimit="10" stroke-width="1.5" stroke-dasharray=""/></g><g><g transform="matrix(0.02,0,0,0.02,1.96,1.96)"><g transform="matrix(1,0,0,1,0,0)"><path fill="#393f44" stroke="none" id="_X-2undefined" paint-order="stroke fill markers" d=" M 0 0 M 825.74609 438.17383 C 825.69979 475.1723 825.75629 512.17163 825.85156 549.16992 C 794.29829 558.09661 765.46524 570.55412 738.23633 585.8144500000001 L 658.6542999999999 507.1894500000001 L 509.8476599999999 656.85742 L 589.42383 735.46875 C 574.05216 763.02029 562.0487099999999 792.29945 553.67188 822.7109399999999 L 440.94727 822.9160199999999 L 440.94727 1033.7051 L 554.84961 1033.2948999999999 C 565.26551 1074.5932999999998 587.93422 1111.7200999999998 610.51172 1144.918 L 610.51172 963.0937499999999 L 510.94727 963.4511699999999 L 510.94727 892.78906 L 610.01562 892.60938 L 615.57617 864.4375 C 623.68569 823.35291 639.74603 784.18805 662.8203100000001 749.14453 L 678.6054700000001 725.17188 L 609.0019500000001 656.41016 L 659.0957000000001 606.02539 L 728.82617 674.91797 L 752.55664 659.0820299999999 C 788.8205 635.15649 828.48451 619.1185099999999 868.03711 610.7656199999999 L 895.99609 604.9609399999999 L 895.74609 508.1757799999999 L 967.71289 508.1757799999999 L 967.15625 604.4570299999999 L 995.58398 604.4570299999999 L 1155.9902 604.4570299999999 C 1138.2767999999999 583.3133799999999 1064.8698 555.7993799999999 1037.4823999999999 548.13281 L 1038.1172 438.1757799999999 C 959.7171599999999 438.1737799999999 898.2517399999999 438.17977999999994 825.7460899999999 438.1737799999999 Z M 0 0 M 1024.9043 639.83203 L 1025.1914 750.82422 C 993.6369799999999 759.75091 964.80383 772.20673 937.57422 787.46875 L 857.99023 708.84375 L 709.18359 858.51172 L 788.76172 937.1230499999999 C 773.38937 964.67608 761.3846199999999 993.9542999999999 753.00781 1024.3672 L 640.2851599999999 1024.5702999999999 L 640.2851599999999 1235.3593999999998 L 754.1855499999999 1234.9511999999997 C 763.1509799999999 1266.2081999999998 775.5796899999999 1294.7509999999997 790.8105499999999 1321.6972999999998 L 709.3164099999999 1402.8729999999998 L 859.7812499999999 1550.7519999999997 L 940.9824199999999 1469.9276999999997 C 968.7967199999999 1485.3723999999997 998.3629 1497.3636999999997 1029.0156 1505.7089999999998 L 1029.0686 1620.4218999999998 C 1101.4603 1621.0557 1178.5356000000002 1620.7291999999998 1240.4045 1620.7226999999998 L 1240.4045 1504.6522999999997 C 1271.9823000000001 1495.7484999999997 1300.9055 1483.2013999999997 1328.1408000000001 1467.9472999999998 L 1409.2756000000002 1547.9433999999999 L 1558.1799 1398.4629 L 1476.8752000000002 1318.3398 C 1492.2822 1290.7142 1504.2876 1261.3861 1512.6740000000002 1230.9414 L 1623.0529000000001 1230.2598 L 1623.0529000000001 1019.6738 L 1511.4357000000002 1020.3535 C 1502.4633000000001 989.0665200000001 1490.2144000000003 960.7167400000001 1474.7814000000003 933.5918 L 1551.9025000000004 856.27344 L 1401.5217000000005 708.1425800000001 L 1324.5002000000004 785.4277300000001 C 1296.7999000000004 770.1087700000002 1267.3539000000005 758.1453700000001 1236.8205000000005 749.7890600000001 L 1237.4533000000006 639.83203 L 1024.9045000000006 639.83203 Z M 0 0 M 1095.0839999999998 709.83203 L 1167.0507999999998 709.83203 L 1166.4960999999998 806.11523 L 1194.9218999999998 811.69336 C 1236.1942999999999 819.79239 1275.7524999999998 835.83275 1310.9374999999998 858.76562 L 1334.7616999999998 874.29492 L 1401.9784999999997 806.84961 L 1452.5956999999996 856.7109399999999 L 1385.2851999999996 924.19336 L 1401.4804999999997 948.09961 C 1425.2451999999996 983.9725 1441.0087999999996 1022.7495 1449.9081999999996 1062.6797 L 1455.7636999999995 1090.6914 L 1553.0448999999994 1090.0996 L 1553.0448999999994 1160.6895 L 1456.3065999999994 1161.2852 L 1450.7499999999995 1189.2969 C 1442.5901999999996 1230.4276 1426.5648999999996 1269.5910000000001 1403.4511999999995 1304.6953 L 1387.6483999999996 1328.7012000000002 L 1458.9061999999997 1398.9238000000003 L 1408.8202999999996 1449.2031000000002 L 1337.5546999999997 1378.9375000000002 L 1313.8651999999997 1394.6758000000002 C 1277.5899999999997 1418.3823000000002 1238.2405999999996 1434.7985 1198.5409999999997 1442.8867000000002 L 1170.3964999999996 1448.5078000000003 L 1170.3964999999996 1550.7227000000003 C 1151.1554999999996 1550.7697000000003 1130.1655999999996 1550.7397000000003 1099.0272999999995 1550.6957000000002 L 1098.9822999999994 1449.2465000000002 L 1070.7107999999994 1443.7250000000001 C 1029.3806999999995 1435.6542000000002 989.8875999999993 1419.6875000000002 954.7635699999994 1396.6586000000002 L 931.0096699999993 1381.0844000000002 L 859.4686499999993 1452.2953000000002 L 808.8436499999993 1402.5375000000001 L 880.4842799999993 1331.1762 L 864.1366199999993 1307.1723000000002 C 840.3497899999993 1271.3781000000001 824.6137199999993 1232.5600000000002 815.6991199999993 1192.6762 L 809.8495099999993 1164.7504000000001 L 710.2850599999994 1165.1059 L 710.2850599999994 1094.4457 L 809.3534199999993 1094.2641 L 814.9139599999993 1066.0961000000002 C 823.0235399999993 1025.0112000000001 839.0841299999993 985.8442300000002 862.1580999999993 950.8011800000002 L 877.9432599999993 926.8265700000002 L 808.3377899999994 858.0648500000002 L 858.4315399999994 807.6800900000002 L 928.1639599999994 876.5726700000001 L 951.8944299999994 860.7386800000002 C 988.2042899999993 836.9689600000002 1026.7352999999994 821.1972900000002 1067.3748999999993 812.4242300000002 L 1095.3357999999994 806.6195400000001 L 1095.0838999999994 709.8324300000002 Z M 0 0 M 1132.2499999999998 967.03516 C 1045.6030999999998 967.03516 974.6113299999997 1038.0288 974.6113299999997 1124.6758 C 974.6113299999997 1211.3228 1045.6030999999998 1282.3125 1132.2499999999998 1282.3125 C 1218.8968999999997 1282.3125 1289.8886999999997 1211.3228 1289.8886999999997 1124.6758 C 1289.8886999999997 1038.0288 1218.8968999999997 967.03516 1132.2499999999998 967.03516 Z M 0 0 M 1132.2499999999998 1037.0352 C 1181.0661999999998 1037.0352 1219.8886999999997 1075.8597 1219.8886999999997 1124.6758 C 1219.8886999999997 1173.4919 1181.0661999999998 1212.3125 1132.2499999999998 1212.3125 C 1083.4337999999998 1212.3125 1044.6132999999998 1173.4919 1044.6132999999998 1124.6758 C 1044.6132999999998 1075.8597 1083.4337999999998 1037.0352 1132.2499999999998 1037.0352 Z"/></g><g transform="matrix(1,0,0,1,0,0)"><path fill="none" stroke="black" id="_X-2undefined" paint-order="fill stroke markers" d=" M 0 0 M 825.74609 438.17383 C 825.69979 475.1723 825.75629 512.17163 825.85156 549.16992 C 794.29829 558.09661 765.46524 570.55412 738.23633 585.8144500000001 L 658.6542999999999 507.1894500000001 L 509.8476599999999 656.85742 L 589.42383 735.46875 C 574.05216 763.02029 562.0487099999999 792.29945 553.67188 822.7109399999999 L 440.94727 822.9160199999999 L 440.94727 1033.7051 L 554.84961 1033.2948999999999 C 565.26551 1074.5932999999998 587.93422 1111.7200999999998 610.51172 1144.918 L 610.51172 963.0937499999999 L 510.94727 963.4511699999999 L 510.94727 892.78906 L 610.01562 892.60938 L 615.57617 864.4375 C 623.68569 823.35291 639.74603 784.18805 662.8203100000001 749.14453 L 678.6054700000001 725.17188 L 609.0019500000001 656.41016 L 659.0957000000001 606.02539 L 728.82617 674.91797 L 752.55664 659.0820299999999 C 788.8205 635.15649 828.48451 619.1185099999999 868.03711 610.7656199999999 L 895.99609 604.9609399999999 L 895.74609 508.1757799999999 L 967.71289 508.1757799999999 L 967.15625 604.4570299999999 L 995.58398 604.4570299999999 L 1155.9902 604.4570299999999 C 1138.2767999999999 583.3133799999999 1064.8698 555.7993799999999 1037.4823999999999 548.13281 L 1038.1172 438.1757799999999 C 959.7171599999999 438.1737799999999 898.2517399999999 438.17977999999994 825.7460899999999 438.1737799999999 Z M 0 0 M 1024.9043 639.83203 L 1025.1914 750.82422 C 993.6369799999999 759.75091 964.80383 772.20673 937.57422 787.46875 L 857.99023 708.84375 L 709.18359 858.51172 L 788.76172 937.1230499999999 C 773.38937 964.67608 761.3846199999999 993.9542999999999 753.00781 1024.3672 L 640.2851599999999 1024.5702999999999 L 640.2851599999999 1235.3593999999998 L 754.1855499999999 1234.9511999999997 C 763.1509799999999 1266.2081999999998 775.5796899999999 1294.7509999999997 790.8105499999999 1321.6972999999998 L 709.3164099999999 1402.8729999999998 L 859.7812499999999 1550.7519999999997 L 940.9824199999999 1469.9276999999997 C 968.7967199999999 1485.3723999999997 998.3629 1497.3636999999997 1029.0156 1505.7089999999998 L 1029.0686 1620.4218999999998 C 1101.4603 1621.0557 1178.5356000000002 1620.7291999999998 1240.4045 1620.7226999999998 L 1240.4045 1504.6522999999997 C 1271.9823000000001 1495.7484999999997 1300.9055 1483.2013999999997 1328.1408000000001 1467.9472999999998 L 1409.2756000000002 1547.9433999999999 L 1558.1799 1398.4629 L 1476.8752000000002 1318.3398 C 1492.2822 1290.7142 1504.2876 1261.3861 1512.6740000000002 1230.9414 L 1623.0529000000001 1230.2598 L 1623.0529000000001 1019.6738 L 1511.4357000000002 1020.3535 C 1502.4633000000001 989.0665200000001 1490.2144000000003 960.7167400000001 1474.7814000000003 933.5918 L 1551.9025000000004 856.27344 L 1401.5217000000005 708.1425800000001 L 1324.5002000000004 785.4277300000001 C 1296.7999000000004 770.1087700000002 1267.3539000000005 758.1453700000001 1236.8205000000005 749.7890600000001 L 1237.4533000000006 639.83203 L 1024.9045000000006 639.83203 Z M 0 0 M 1095.0839999999998 709.83203 L 1167.0507999999998 709.83203 L 1166.4960999999998 806.11523 L 1194.9218999999998 811.69336 C 1236.1942999999999 819.79239 1275.7524999999998 835.83275 1310.9374999999998 858.76562 L 1334.7616999999998 874.29492 L 1401.9784999999997 806.84961 L 1452.5956999999996 856.7109399999999 L 1385.2851999999996 924.19336 L 1401.4804999999997 948.09961 C 1425.2451999999996 983.9725 1441.0087999999996 1022.7495 1449.9081999999996 1062.6797 L 1455.7636999999995 1090.6914 L 1553.0448999999994 1090.0996 L 1553.0448999999994 1160.6895 L 1456.3065999999994 1161.2852 L 1450.7499999999995 1189.2969 C 1442.5901999999996 1230.4276 1426.5648999999996 1269.5910000000001 1403.4511999999995 1304.6953 L 1387.6483999999996 1328.7012000000002 L 1458.9061999999997 1398.9238000000003 L 1408.8202999999996 1449.2031000000002 L 1337.5546999999997 1378.9375000000002 L 1313.8651999999997 1394.6758000000002 C 1277.5899999999997 1418.3823000000002 1238.2405999999996 1434.7985 1198.5409999999997 1442.8867000000002 L 1170.3964999999996 1448.5078000000003 L 1170.3964999999996 1550.7227000000003 C 1151.1554999999996 1550.7697000000003 1130.1655999999996 1550.7397000000003 1099.0272999999995 1550.6957000000002 L 1098.9822999999994 1449.2465000000002 L 1070.7107999999994 1443.7250000000001 C 1029.3806999999995 1435.6542000000002 989.8875999999993 1419.6875000000002 954.7635699999994 1396.6586000000002 L 931.0096699999993 1381.0844000000002 L 859.4686499999993 1452.2953000000002 L 808.8436499999993 1402.5375000000001 L 880.4842799999993 1331.1762 L 864.1366199999993 1307.1723000000002 C 840.3497899999993 1271.3781000000001 824.6137199999993 1232.5600000000002 815.6991199999993 1192.6762 L 809.8495099999993 1164.7504000000001 L 710.2850599999994 1165.1059 L 710.2850599999994 1094.4457 L 809.3534199999993 1094.2641 L 814.9139599999993 1066.0961000000002 C 823.0235399999993 1025.0112000000001 839.0841299999993 985.8442300000002 862.1580999999993 950.8011800000002 L 877.9432599999993 926.8265700000002 L 808.3377899999994 858.0648500000002 L 858.4315399999994 807.6800900000002 L 928.1639599999994 876.5726700000001 L 951.8944299999994 860.7386800000002 C 988.2042899999993 836.9689600000002 1026.7352999999994 821.1972900000002 1067.3748999999993 812.4242300000002 L 1095.3357999999994 806.6195400000001 L 1095.0838999999994 709.8324300000002 Z M 0 0 M 1132.2499999999998 967.03516 C 1045.6030999999998 967.03516 974.6113299999997 1038.0288 974.6113299999997 1124.6758 C 974.6113299999997 1211.3228 1045.6030999999998 1282.3125 1132.2499999999998 1282.3125 C 1218.8968999999997 1282.3125 1289.8886999999997 1211.3228 1289.8886999999997 1124.6758 C 1289.8886999999997 1038.0288 1218.8968999999997 967.03516 1132.2499999999998 967.03516 Z M 0 0 M 1132.2499999999998 1037.0352 C 1181.0661999999998 1037.0352 1219.8886999999997 1075.8597 1219.8886999999997 1124.6758 C 1219.8886999999997 1173.4919 1181.0661999999998 1212.3125 1132.2499999999998 1212.3125 C 1083.4337999999998 1212.3125 1044.6132999999998 1173.4919 1044.6132999999998 1124.6758 C 1044.6132999999998 1075.8597 1083.4337999999998 1037.0352 1132.2499999999998 1037.0352 Z" stroke-miterlimit="10" stroke-dasharray=""/></g><g transform="matrix(1,0,0,1,0,0)"><path fill="#393f44" stroke="none" id="_X-2undefined" paint-order="stroke fill markers" d=" M 0 0 M 825.74609 438.17383 C 825.69979 475.1723 825.75629 512.17163 825.85156 549.16992 C 794.29829 558.09661 765.46524 570.55412 738.23633 585.8144500000001 L 658.6542999999999 507.1894500000001 L 509.8476599999999 656.85742 L 589.42383 735.46875 C 574.05216 763.02029 562.0487099999999 792.29945 553.67188 822.7109399999999 L 440.94727 822.9160199999999 L 440.94727 1033.7051 L 554.84961 1033.2948999999999 C 565.26551 1074.5932999999998 587.93422 1111.7200999999998 610.51172 1144.918 L 610.51172 963.0937499999999 L 510.94727 963.4511699999999 L 510.94727 892.78906 L 610.01562 892.60938 L 615.57617 864.4375 C 623.68569 823.35291 639.74603 784.18805 662.8203100000001 749.14453 L 678.6054700000001 725.17188 L 609.0019500000001 656.41016 L 659.0957000000001 606.02539 L 728.82617 674.91797 L 752.55664 659.0820299999999 C 788.8205 635.15649 828.48451 619.1185099999999 868.03711 610.7656199999999 L 895.99609 604.9609399999999 L 895.74609 508.1757799999999 L 967.71289 508.1757799999999 L 967.15625 604.4570299999999 L 995.58398 604.4570299999999 L 1155.9902 604.4570299999999 C 1138.2767999999999 583.3133799999999 1064.8698 555.7993799999999 1037.4823999999999 548.13281 L 1038.1172 438.1757799999999 C 959.7171599999999 438.1737799999999 898.2517399999999 438.17977999999994 825.7460899999999 438.1737799999999 Z M 0 0 M 1024.9043 639.83203 L 1025.1914 750.82422 C 993.6369799999999 759.75091 964.80383 772.20673 937.57422 787.46875 L 857.99023 708.84375 L 709.18359 858.51172 L 788.76172 937.1230499999999 C 773.38937 964.67608 761.3846199999999 993.9542999999999 753.00781 1024.3672 L 640.2851599999999 1024.5702999999999 L 640.2851599999999 1235.3593999999998 L 754.1855499999999 1234.9511999999997 C 763.1509799999999 1266.2081999999998 775.5796899999999 1294.7509999999997 790.8105499999999 1321.6972999999998 L 709.3164099999999 1402.8729999999998 L 859.7812499999999 1550.7519999999997 L 940.9824199999999 1469.9276999999997 C 968.7967199999999 1485.3723999999997 998.3629 1497.3636999999997 1029.0156 1505.7089999999998 L 1029.0686 1620.4218999999998 C 1101.4603 1621.0557 1178.5356000000002 1620.7291999999998 1240.4045 1620.7226999999998 L 1240.4045 1504.6522999999997 C 1271.9823000000001 1495.7484999999997 1300.9055 1483.2013999999997 1328.1408000000001 1467.9472999999998 L 1409.2756000000002 1547.9433999999999 L 1558.1799 1398.4629 L 1476.8752000000002 1318.3398 C 1492.2822 1290.7142 1504.2876 1261.3861 1512.6740000000002 1230.9414 L 1623.0529000000001 1230.2598 L 1623.0529000000001 1019.6738 L 1511.4357000000002 1020.3535 C 1502.4633000000001 989.0665200000001 1490.2144000000003 960.7167400000001 1474.7814000000003 933.5918 L 1551.9025000000004 856.27344 L 1401.5217000000005 708.1425800000001 L 1324.5002000000004 785.4277300000001 C 1296.7999000000004 770.1087700000002 1267.3539000000005 758.1453700000001 1236.8205000000005 749.7890600000001 L 1237.4533000000006 639.83203 L 1024.9045000000006 639.83203 Z M 0 0 M 1095.0839999999998 709.83203 L 1167.0507999999998 709.83203 L 1166.4960999999998 806.11523 L 1194.9218999999998 811.69336 C 1236.1942999999999 819.79239 1275.7524999999998 835.83275 1310.9374999999998 858.76562 L 1334.7616999999998 874.29492 L 1401.9784999999997 806.84961 L 1452.5956999999996 856.7109399999999 L 1385.2851999999996 924.19336 L 1401.4804999999997 948.09961 C 1425.2451999999996 983.9725 1441.0087999999996 1022.7495 1449.9081999999996 1062.6797 L 1455.7636999999995 1090.6914 L 1553.0448999999994 1090.0996 L 1553.0448999999994 1160.6895 L 1456.3065999999994 1161.2852 L 1450.7499999999995 1189.2969 C 1442.5901999999996 1230.4276 1426.5648999999996 1269.5910000000001 1403.4511999999995 1304.6953 L 1387.6483999999996 1328.7012000000002 L 1458.9061999999997 1398.9238000000003 L 1408.8202999999996 1449.2031000000002 L 1337.5546999999997 1378.9375000000002 L 1313.8651999999997 1394.6758000000002 C 1277.5899999999997 1418.3823000000002 1238.2405999999996 1434.7985 1198.5409999999997 1442.8867000000002 L 1170.3964999999996 1448.5078000000003 L 1170.3964999999996 1550.7227000000003 C 1151.1554999999996 1550.7697000000003 1130.1655999999996 1550.7397000000003 1099.0272999999995 1550.6957000000002 L 1098.9822999999994 1449.2465000000002 L 1070.7107999999994 1443.7250000000001 C 1029.3806999999995 1435.6542000000002 989.8875999999993 1419.6875000000002 954.7635699999994 1396.6586000000002 L 931.0096699999993 1381.0844000000002 L 859.4686499999993 1452.2953000000002 L 808.8436499999993 1402.5375000000001 L 880.4842799999993 1331.1762 L 864.1366199999993 1307.1723000000002 C 840.3497899999993 1271.3781000000001 824.6137199999993 1232.5600000000002 815.6991199999993 1192.6762 L 809.8495099999993 1164.7504000000001 L 710.2850599999994 1165.1059 L 710.2850599999994 1094.4457 L 809.3534199999993 1094.2641 L 814.9139599999993 1066.0961000000002 C 823.0235399999993 1025.0112000000001 839.0841299999993 985.8442300000002 862.1580999999993 950.8011800000002 L 877.9432599999993 926.8265700000002 L 808.3377899999994 858.0648500000002 L 858.4315399999994 807.6800900000002 L 928.1639599999994 876.5726700000001 L 951.8944299999994 860.7386800000002 C 988.2042899999993 836.9689600000002 1026.7352999999994 821.1972900000002 1067.3748999999993 812.4242300000002 L 1095.3357999999994 806.6195400000001 L 1095.0838999999994 709.8324300000002 Z M 0 0 M 1132.2499999999998 967.03516 C 1045.6030999999998 967.03516 974.6113299999997 1038.0288 974.6113299999997 1124.6758 C 974.6113299999997 1211.3228 1045.6030999999998 1282.3125 1132.2499999999998 1282.3125 C 1218.8968999999997 1282.3125 1289.8886999999997 1211.3228 1289.8886999999997 1124.6758 C 1289.8886999999997 1038.0288 1218.8968999999997 967.03516 1132.2499999999998 967.03516 Z M 0 0 M 1132.2499999999998 1037.0352 C 1181.0661999999998 1037.0352 1219.8886999999997 1075.8597 1219.8886999999997 1124.6758 C 1219.8886999999997 1173.4919 1181.0661999999998 1212.3125 1132.2499999999998 1212.3125 C 1083.4337999999998 1212.3125 1044.6132999999998 1173.4919 1044.6132999999998 1124.6758 C 1044.6132999999998 1075.8597 1083.4337999999998 1037.0352 1132.2499999999998 1037.0352 Z"/></g></g></g><g transform="matrix(1,0,0,1,36.73046875,31.5)"><text fill="#000000" stroke="none" font-family="Open Sans" font-size="12pt" font-style="normal" font-weight="normal" text-decoration="normal" x="36.26953125" y="12" text-anchor="middle" dominant-baseline="alphabetic">  Handle   </text><text fill="#000000" stroke="none" font-family="Open Sans" font-size="12pt" font-style="normal" font-weight="normal" text-decoration="normal" x="36.26953125" y="27" text-anchor="middle" dominant-baseline="alphabetic">Exception</text></g></g><g id="_X-3" bpmn2nodeid="_X-3" transform="matrix(1,0,0,1,486,66)"><g><path fill="none" stroke="none"/></g><g transform="matrix(0.125,0,0,0.125,0,0)"><g transform="matrix(1,0,0,1,0,0)"><path fill="#fce7e7" stroke="none" id="_X-3?shapeType=BACKGROUND" paint-order="stroke fill markers" d=" M 0 0 M 444 224 C 444 263.9 434.2 300.8 414.4 334.5 C 394.7 368.2 368 394.9 334.4 414.5 C 300.79999999999995 434.1 263.9 444 224 444 C 184.10000000000002 444 147.2 434.2 113.5 414.4 C 79.8 394.7 53.1 368 33.5 334.4 C 13.899999999999999 300.79999999999995 4 263.9 4 224 C 4 184.10000000000002 13.8 147.2 33.6 113.5 C 53.400000000000006 79.80000000000001 80.1 53.1 113.6 33.5 C 147.1 13.899999999999999 184.1 4 224 4 C 263.9 4 300.8 13.8 334.5 33.6 C 368.2 53.400000000000006 394.9 80.1 414.5 113.6 C 434.1 147.1 444 184.1 444 224 Z"/></g><g><g transform="matrix(1,0,0,1,0,0)"><g transform="matrix(1,0,0,1,0,0)"><path fill="#a30000" stroke="none" id="_X-3?shapeType=BORDER&amp;renderType=FILL" paint-order="stroke fill markers" d=" M 0 0 M 224 0 C 100.3 0 0 100.3 0 224 C 0 347.7 100.3 448 224 448 C 347.7 448 448 347.7 448 224 C 448 100.30000000000001 347.7 0 224 0 Z M 0 0 M 224 400 C 126.8 400 48 321.2 48 224 C 48 126.80000000000001 126.8 48 224 48 C 321.2 48 400 126.8 400 224 C 400 321.2 321.2 400 224 400 Z"/></g></g></g></g><g transform="matrix(1,0,0,1,-77.49609375,61)"><text fill="#000000" stroke="none" font-family="Open Sans" font-size="12pt" font-style="normal" font-weight="normal" text-decoration="normal" x="105.49609375" y="12" text-anchor="middle" dominant-baseline="alphabetic">Fin de gestion de l'Exception</text></g></g></g><g id="_1" bpmn2nodeid="_1" transform="matrix(1,0,0,1,202,125)"><g><path fill="none" stroke="none"/></g><g transform="matrix(0.125,0,0,0.125,0,0)"><g transform="matrix(1,0,0,1,0,0)"><path fill="#e8fae6" stroke="none" id="_1?shapeType=BACKGROUND" paint-order="stroke fill markers" d=" M 0 0 M 444 224 C 444 263.9 434.2 300.8 414.4 334.5 C 394.7 368.2 368 394.9 334.4 414.5 C 300.79999999999995 434.1 263.9 444 224 444 C 184.10000000000002 444 147.2 434.2 113.5 414.4 C 79.8 394.7 53.1 368 33.5 334.4 C 13.899999999999999 300.79999999999995 4 263.9 4 224 C 4 184.10000000000002 13.8 147.2 33.6 113.5 C 53.400000000000006 79.80000000000001 80.1 53.1 113.6 33.5 C 147.1 13.899999999999999 184.1 4 224 4 C 263.9 4 300.8 13.8 334.5 33.6 C 368.2 53.400000000000006 394.9 80.1 414.5 113.6 C 434.1 147.1 444 184.1 444 224 Z"/></g><g><g transform="matrix(1,0,0,1,0,0)"><g transform="matrix(1,0,0,1,0,0)"><path fill="#4aa241" stroke="none" id="_1?shapeType=BORDER&amp;renderType=FILL" paint-order="stroke fill markers" d=" M 0 0 M 224 0 C 100.3 0 0 100.3 0 224 C 0 347.7 100.3 448 224 448 C 347.7 448 448 347.7 448 224 C 448 100.30000000000001 347.7 0 224 0 Z M 0 0 M 224 432 C 109.1 432 16 338.9 16 224 C 16 109.10000000000002 109.1 16 224 16 C 338.9 16 432 109.1 432 224 C 432 338.9 338.9 432 224 432 Z"/></g></g></g></g><g transform="matrix(1,0,0,1,-74.92578125,61)"><text fill="#000000" stroke="none" font-family="Open Sans" font-size="12pt" font-style="normal" font-weight="normal" text-decoration="normal" x="102.92578125" y="12" text-anchor="middle" dominant-baseline="alphabetic">Démarrer Processus lancer </text><text fill="#000000" stroke="none" font-family="Open Sans" font-size="12pt" font-style="normal" font-weight="normal" text-decoration="normal" x="102.92578125" y="27" text-anchor="middle" dominant-baseline="alphabetic">            une Exception            </text></g></g><g id="_2" bpmn2nodeid="_2" transform="matrix(1,0,0,1,374.5,114)"><g><path fill="none" stroke="none"/></g><g transform="matrix(1,0,0,1,0,0)"><path fill="#ffffff" stroke="none" id="_2?shapeType=BACKGROUND" paint-order="stroke fill markers" d=" M 2 0 L 139 0 L 139 0 A 2 2 0 0 1 141 2 L 141 76 L 141 76 A 2 2 0 0 1 139 78 L 2 78 L 2 78 A 2 2 0 0 1 0 76 L 0 2 L 0 2.0000000000000004 A 2 2 0 0 1 1.9999999999999996 0 Z"/></g><g transform="matrix(1,0,0,1,0,0)"><path fill="none" stroke="#000000" id="_2?shapeType=BORDER&amp;renderType=STROKE" paint-order="fill stroke markers" d=" M 2 0 L 139 0 L 139 0 A 2 2 0 0 1 141 2 L 141 76 L 141 76 A 2 2 0 0 1 139 78 L 2 78 L 2 78 A 2 2 0 0 1 0 76 L 0 2 L 0 2.0000000000000004 A 2 2 0 0 1 1.9999999999999996 0 Z" stroke-miterlimit="10" stroke-width="1.5" stroke-dasharray=""/></g><g><g transform="matrix(0.02,0,0,0.02,1.96,1.96)"><g transform="matrix(1,0,0,1,0,0)"><path fill="#393f44" stroke="none" id="_2undefined" paint-order="stroke fill markers" d=" M 0 0 M 825.74609 438.17383 C 825.69979 475.1723 825.75629 512.17163 825.85156 549.16992 C 794.29829 558.09661 765.46524 570.55412 738.23633 585.8144500000001 L 658.6542999999999 507.1894500000001 L 509.8476599999999 656.85742 L 589.42383 735.46875 C 574.05216 763.02029 562.0487099999999 792.29945 553.67188 822.7109399999999 L 440.94727 822.9160199999999 L 440.94727 1033.7051 L 554.84961 1033.2948999999999 C 565.26551 1074.5932999999998 587.93422 1111.7200999999998 610.51172 1144.918 L 610.51172 963.0937499999999 L 510.94727 963.4511699999999 L 510.94727 892.78906 L 610.01562 892.60938 L 615.57617 864.4375 C 623.68569 823.35291 639.74603 784.18805 662.8203100000001 749.14453 L 678.6054700000001 725.17188 L 609.0019500000001 656.41016 L 659.0957000000001 606.02539 L 728.82617 674.91797 L 752.55664 659.0820299999999 C 788.8205 635.15649 828.48451 619.1185099999999 868.03711 610.7656199999999 L 895.99609 604.9609399999999 L 895.74609 508.1757799999999 L 967.71289 508.1757799999999 L 967.15625 604.4570299999999 L 995.58398 604.4570299999999 L 1155.9902 604.4570299999999 C 1138.2767999999999 583.3133799999999 1064.8698 555.7993799999999 1037.4823999999999 548.13281 L 1038.1172 438.1757799999999 C 959.7171599999999 438.1737799999999 898.2517399999999 438.17977999999994 825.7460899999999 438.1737799999999 Z M 0 0 M 1024.9043 639.83203 L 1025.1914 750.82422 C 993.6369799999999 759.75091 964.80383 772.20673 937.57422 787.46875 L 857.99023 708.84375 L 709.18359 858.51172 L 788.76172 937.1230499999999 C 773.38937 964.67608 761.3846199999999 993.9542999999999 753.00781 1024.3672 L 640.2851599999999 1024.5702999999999 L 640.2851599999999 1235.3593999999998 L 754.1855499999999 1234.9511999999997 C 763.1509799999999 1266.2081999999998 775.5796899999999 1294.7509999999997 790.8105499999999 1321.6972999999998 L 709.3164099999999 1402.8729999999998 L 859.7812499999999 1550.7519999999997 L 940.9824199999999 1469.9276999999997 C 968.7967199999999 1485.3723999999997 998.3629 1497.3636999999997 1029.0156 1505.7089999999998 L 1029.0686 1620.4218999999998 C 1101.4603 1621.0557 1178.5356000000002 1620.7291999999998 1240.4045 1620.7226999999998 L 1240.4045 1504.6522999999997 C 1271.9823000000001 1495.7484999999997 1300.9055 1483.2013999999997 1328.1408000000001 1467.9472999999998 L 1409.2756000000002 1547.9433999999999 L 1558.1799 1398.4629 L 1476.8752000000002 1318.3398 C 1492.2822 1290.7142 1504.2876 1261.3861 1512.6740000000002 1230.9414 L 1623.0529000000001 1230.2598 L 1623.0529000000001 1019.6738 L 1511.4357000000002 1020.3535 C 1502.4633000000001 989.0665200000001 1490.2144000000003 960.7167400000001 1474.7814000000003 933.5918 L 1551.9025000000004 856.27344 L 1401.5217000000005 708.1425800000001 L 1324.5002000000004 785.4277300000001 C 1296.7999000000004 770.1087700000002 1267.3539000000005 758.1453700000001 1236.8205000000005 749.7890600000001 L 1237.4533000000006 639.83203 L 1024.9045000000006 639.83203 Z M 0 0 M 1095.0839999999998 709.83203 L 1167.0507999999998 709.83203 L 1166.4960999999998 806.11523 L 1194.9218999999998 811.69336 C 1236.1942999999999 819.79239 1275.7524999999998 835.83275 1310.9374999999998 858.76562 L 1334.7616999999998 874.29492 L 1401.9784999999997 806.84961 L 1452.5956999999996 856.7109399999999 L 1385.2851999999996 924.19336 L 1401.4804999999997 948.09961 C 1425.2451999999996 983.9725 1441.0087999999996 1022.7495 1449.9081999999996 1062.6797 L 1455.7636999999995 1090.6914 L 1553.0448999999994 1090.0996 L 1553.0448999999994 1160.6895 L 1456.3065999999994 1161.2852 L 1450.7499999999995 1189.2969 C 1442.5901999999996 1230.4276 1426.5648999999996 1269.5910000000001 1403.4511999999995 1304.6953 L 1387.6483999999996 1328.7012000000002 L 1458.9061999999997 1398.9238000000003 L 1408.8202999999996 1449.2031000000002 L 1337.5546999999997 1378.9375000000002 L 1313.8651999999997 1394.6758000000002 C 1277.5899999999997 1418.3823000000002 1238.2405999999996 1434.7985 1198.5409999999997 1442.8867000000002 L 1170.3964999999996 1448.5078000000003 L 1170.3964999999996 1550.7227000000003 C 1151.1554999999996 1550.7697000000003 1130.1655999999996 1550.7397000000003 1099.0272999999995 1550.6957000000002 L 1098.9822999999994 1449.2465000000002 L 1070.7107999999994 1443.7250000000001 C 1029.3806999999995 1435.6542000000002 989.8875999999993 1419.6875000000002 954.7635699999994 1396.6586000000002 L 931.0096699999993 1381.0844000000002 L 859.4686499999993 1452.2953000000002 L 808.8436499999993 1402.5375000000001 L 880.4842799999993 1331.1762 L 864.1366199999993 1307.1723000000002 C 840.3497899999993 1271.3781000000001 824.6137199999993 1232.5600000000002 815.6991199999993 1192.6762 L 809.8495099999993 1164.7504000000001 L 710.2850599999994 1165.1059 L 710.2850599999994 1094.4457 L 809.3534199999993 1094.2641 L 814.9139599999993 1066.0961000000002 C 823.0235399999993 1025.0112000000001 839.0841299999993 985.8442300000002 862.1580999999993 950.8011800000002 L 877.9432599999993 926.8265700000002 L 808.3377899999994 858.0648500000002 L 858.4315399999994 807.6800900000002 L 928.1639599999994 876.5726700000001 L 951.8944299999994 860.7386800000002 C 988.2042899999993 836.9689600000002 1026.7352999999994 821.1972900000002 1067.3748999999993 812.4242300000002 L 1095.3357999999994 806.6195400000001 L 1095.0838999999994 709.8324300000002 Z M 0 0 M 1132.2499999999998 967.03516 C 1045.6030999999998 967.03516 974.6113299999997 1038.0288 974.6113299999997 1124.6758 C 974.6113299999997 1211.3228 1045.6030999999998 1282.3125 1132.2499999999998 1282.3125 C 1218.8968999999997 1282.3125 1289.8886999999997 1211.3228 1289.8886999999997 1124.6758 C 1289.8886999999997 1038.0288 1218.8968999999997 967.03516 1132.2499999999998 967.03516 Z M 0 0 M 1132.2499999999998 1037.0352 C 1181.0661999999998 1037.0352 1219.8886999999997 1075.8597 1219.8886999999997 1124.6758 C 1219.8886999999997 1173.4919 1181.0661999999998 1212.3125 1132.2499999999998 1212.3125 C 1083.4337999999998 1212.3125 1044.6132999999998 1173.4919 1044.6132999999998 1124.6758 C 1044.6132999999998 1075.8597 1083.4337999999998 1037.0352 1132.2499999999998 1037.0352 Z"/></g><g transform="matrix(1,0,0,1,0,0)"><path fill="none" stroke="black" id="_2undefined" paint-order="fill stroke markers" d=" M 0 0 M 825.74609 438.17383 C 825.69979 475.1723 825.75629 512.17163 825.85156 549.16992 C 794.29829 558.09661 765.46524 570.55412 738.23633 585.8144500000001 L 658.6542999999999 507.1894500000001 L 509.8476599999999 656.85742 L 589.42383 735.46875 C 574.05216 763.02029 562.0487099999999 792.29945 553.67188 822.7109399999999 L 440.94727 822.9160199999999 L 440.94727 1033.7051 L 554.84961 1033.2948999999999 C 565.26551 1074.5932999999998 587.93422 1111.7200999999998 610.51172 1144.918 L 610.51172 963.0937499999999 L 510.94727 963.4511699999999 L 510.94727 892.78906 L 610.01562 892.60938 L 615.57617 864.4375 C 623.68569 823.35291 639.74603 784.18805 662.8203100000001 749.14453 L 678.6054700000001 725.17188 L 609.0019500000001 656.41016 L 659.0957000000001 606.02539 L 728.82617 674.91797 L 752.55664 659.0820299999999 C 788.8205 635.15649 828.48451 619.1185099999999 868.03711 610.7656199999999 L 895.99609 604.9609399999999 L 895.74609 508.1757799999999 L 967.71289 508.1757799999999 L 967.15625 604.4570299999999 L 995.58398 604.4570299999999 L 1155.9902 604.4570299999999 C 1138.2767999999999 583.3133799999999 1064.8698 555.7993799999999 1037.4823999999999 548.13281 L 1038.1172 438.1757799999999 C 959.7171599999999 438.1737799999999 898.2517399999999 438.17977999999994 825.7460899999999 438.1737799999999 Z M 0 0 M 1024.9043 639.83203 L 1025.1914 750.82422 C 993.6369799999999 759.75091 964.80383 772.20673 937.57422 787.46875 L 857.99023 708.84375 L 709.18359 858.51172 L 788.76172 937.1230499999999 C 773.38937 964.67608 761.3846199999999 993.9542999999999 753.00781 1024.3672 L 640.2851599999999 1024.5702999999999 L 640.2851599999999 1235.3593999999998 L 754.1855499999999 1234.9511999999997 C 763.1509799999999 1266.2081999999998 775.5796899999999 1294.7509999999997 790.8105499999999 1321.6972999999998 L 709.3164099999999 1402.8729999999998 L 859.7812499999999 1550.7519999999997 L 940.9824199999999 1469.9276999999997 C 968.7967199999999 1485.3723999999997 998.3629 1497.3636999999997 1029.0156 1505.7089999999998 L 1029.0686 1620.4218999999998 C 1101.4603 1621.0557 1178.5356000000002 1620.7291999999998 1240.4045 1620.7226999999998 L 1240.4045 1504.6522999999997 C 1271.9823000000001 1495.7484999999997 1300.9055 1483.2013999999997 1328.1408000000001 1467.9472999999998 L 1409.2756000000002 1547.9433999999999 L 1558.1799 1398.4629 L 1476.8752000000002 1318.3398 C 1492.2822 1290.7142 1504.2876 1261.3861 1512.6740000000002 1230.9414 L 1623.0529000000001 1230.2598 L 1623.0529000000001 1019.6738 L 1511.4357000000002 1020.3535 C 1502.4633000000001 989.0665200000001 1490.2144000000003 960.7167400000001 1474.7814000000003 933.5918 L 1551.9025000000004 856.27344 L 1401.5217000000005 708.1425800000001 L 1324.5002000000004 785.4277300000001 C 1296.7999000000004 770.1087700000002 1267.3539000000005 758.1453700000001 1236.8205000000005 749.7890600000001 L 1237.4533000000006 639.83203 L 1024.9045000000006 639.83203 Z M 0 0 M 1095.0839999999998 709.83203 L 1167.0507999999998 709.83203 L 1166.4960999999998 806.11523 L 1194.9218999999998 811.69336 C 1236.1942999999999 819.79239 1275.7524999999998 835.83275 1310.9374999999998 858.76562 L 1334.7616999999998 874.29492 L 1401.9784999999997 806.84961 L 1452.5956999999996 856.7109399999999 L 1385.2851999999996 924.19336 L 1401.4804999999997 948.09961 C 1425.2451999999996 983.9725 1441.0087999999996 1022.7495 1449.9081999999996 1062.6797 L 1455.7636999999995 1090.6914 L 1553.0448999999994 1090.0996 L 1553.0448999999994 1160.6895 L 1456.3065999999994 1161.2852 L 1450.7499999999995 1189.2969 C 1442.5901999999996 1230.4276 1426.5648999999996 1269.5910000000001 1403.4511999999995 1304.6953 L 1387.6483999999996 1328.7012000000002 L 1458.9061999999997 1398.9238000000003 L 1408.8202999999996 1449.2031000000002 L 1337.5546999999997 1378.9375000000002 L 1313.8651999999997 1394.6758000000002 C 1277.5899999999997 1418.3823000000002 1238.2405999999996 1434.7985 1198.5409999999997 1442.8867000000002 L 1170.3964999999996 1448.5078000000003 L 1170.3964999999996 1550.7227000000003 C 1151.1554999999996 1550.7697000000003 1130.1655999999996 1550.7397000000003 1099.0272999999995 1550.6957000000002 L 1098.9822999999994 1449.2465000000002 L 1070.7107999999994 1443.7250000000001 C 1029.3806999999995 1435.6542000000002 989.8875999999993 1419.6875000000002 954.7635699999994 1396.6586000000002 L 931.0096699999993 1381.0844000000002 L 859.4686499999993 1452.2953000000002 L 808.8436499999993 1402.5375000000001 L 880.4842799999993 1331.1762 L 864.1366199999993 1307.1723000000002 C 840.3497899999993 1271.3781000000001 824.6137199999993 1232.5600000000002 815.6991199999993 1192.6762 L 809.8495099999993 1164.7504000000001 L 710.2850599999994 1165.1059 L 710.2850599999994 1094.4457 L 809.3534199999993 1094.2641 L 814.9139599999993 1066.0961000000002 C 823.0235399999993 1025.0112000000001 839.0841299999993 985.8442300000002 862.1580999999993 950.8011800000002 L 877.9432599999993 926.8265700000002 L 808.3377899999994 858.0648500000002 L 858.4315399999994 807.6800900000002 L 928.1639599999994 876.5726700000001 L 951.8944299999994 860.7386800000002 C 988.2042899999993 836.9689600000002 1026.7352999999994 821.1972900000002 1067.3748999999993 812.4242300000002 L 1095.3357999999994 806.6195400000001 L 1095.0838999999994 709.8324300000002 Z M 0 0 M 1132.2499999999998 967.03516 C 1045.6030999999998 967.03516 974.6113299999997 1038.0288 974.6113299999997 1124.6758 C 974.6113299999997 1211.3228 1045.6030999999998 1282.3125 1132.2499999999998 1282.3125 C 1218.8968999999997 1282.3125 1289.8886999999997 1211.3228 1289.8886999999997 1124.6758 C 1289.8886999999997 1038.0288 1218.8968999999997 967.03516 1132.2499999999998 967.03516 Z M 0 0 M 1132.2499999999998 1037.0352 C 1181.0661999999998 1037.0352 1219.8886999999997 1075.8597 1219.8886999999997 1124.6758 C 1219.8886999999997 1173.4919 1181.0661999999998 1212.3125 1132.2499999999998 1212.3125 C 1083.4337999999998 1212.3125 1044.6132999999998 1173.4919 1044.6132999999998 1124.6758 C 1044.6132999999998 1075.8597 1083.4337999999998 1037.0352 1132.2499999999998 1037.0352 Z" stroke-miterlimit="10" stroke-dasharray=""/></g><g transform="matrix(1,0,0,1,0,0)"><path fill="#393f44" stroke="none" id="_2undefined" paint-order="stroke fill markers" d=" M 0 0 M 825.74609 438.17383 C 825.69979 475.1723 825.75629 512.17163 825.85156 549.16992 C 794.29829 558.09661 765.46524 570.55412 738.23633 585.8144500000001 L 658.6542999999999 507.1894500000001 L 509.8476599999999 656.85742 L 589.42383 735.46875 C 574.05216 763.02029 562.0487099999999 792.29945 553.67188 822.7109399999999 L 440.94727 822.9160199999999 L 440.94727 1033.7051 L 554.84961 1033.2948999999999 C 565.26551 1074.5932999999998 587.93422 1111.7200999999998 610.51172 1144.918 L 610.51172 963.0937499999999 L 510.94727 963.4511699999999 L 510.94727 892.78906 L 610.01562 892.60938 L 615.57617 864.4375 C 623.68569 823.35291 639.74603 784.18805 662.8203100000001 749.14453 L 678.6054700000001 725.17188 L 609.0019500000001 656.41016 L 659.0957000000001 606.02539 L 728.82617 674.91797 L 752.55664 659.0820299999999 C 788.8205 635.15649 828.48451 619.1185099999999 868.03711 610.7656199999999 L 895.99609 604.9609399999999 L 895.74609 508.1757799999999 L 967.71289 508.1757799999999 L 967.15625 604.4570299999999 L 995.58398 604.4570299999999 L 1155.9902 604.4570299999999 C 1138.2767999999999 583.3133799999999 1064.8698 555.7993799999999 1037.4823999999999 548.13281 L 1038.1172 438.1757799999999 C 959.7171599999999 438.1737799999999 898.2517399999999 438.17977999999994 825.7460899999999 438.1737799999999 Z M 0 0 M 1024.9043 639.83203 L 1025.1914 750.82422 C 993.6369799999999 759.75091 964.80383 772.20673 937.57422 787.46875 L 857.99023 708.84375 L 709.18359 858.51172 L 788.76172 937.1230499999999 C 773.38937 964.67608 761.3846199999999 993.9542999999999 753.00781 1024.3672 L 640.2851599999999 1024.5702999999999 L 640.2851599999999 1235.3593999999998 L 754.1855499999999 1234.9511999999997 C 763.1509799999999 1266.2081999999998 775.5796899999999 1294.7509999999997 790.8105499999999 1321.6972999999998 L 709.3164099999999 1402.8729999999998 L 859.7812499999999 1550.7519999999997 L 940.9824199999999 1469.9276999999997 C 968.7967199999999 1485.3723999999997 998.3629 1497.3636999999997 1029.0156 1505.7089999999998 L 1029.0686 1620.4218999999998 C 1101.4603 1621.0557 1178.5356000000002 1620.7291999999998 1240.4045 1620.7226999999998 L 1240.4045 1504.6522999999997 C 1271.9823000000001 1495.7484999999997 1300.9055 1483.2013999999997 1328.1408000000001 1467.9472999999998 L 1409.2756000000002 1547.9433999999999 L 1558.1799 1398.4629 L 1476.8752000000002 1318.3398 C 1492.2822 1290.7142 1504.2876 1261.3861 1512.6740000000002 1230.9414 L 1623.0529000000001 1230.2598 L 1623.0529000000001 1019.6738 L 1511.4357000000002 1020.3535 C 1502.4633000000001 989.0665200000001 1490.2144000000003 960.7167400000001 1474.7814000000003 933.5918 L 1551.9025000000004 856.27344 L 1401.5217000000005 708.1425800000001 L 1324.5002000000004 785.4277300000001 C 1296.7999000000004 770.1087700000002 1267.3539000000005 758.1453700000001 1236.8205000000005 749.7890600000001 L 1237.4533000000006 639.83203 L 1024.9045000000006 639.83203 Z M 0 0 M 1095.0839999999998 709.83203 L 1167.0507999999998 709.83203 L 1166.4960999999998 806.11523 L 1194.9218999999998 811.69336 C 1236.1942999999999 819.79239 1275.7524999999998 835.83275 1310.9374999999998 858.76562 L 1334.7616999999998 874.29492 L 1401.9784999999997 806.84961 L 1452.5956999999996 856.7109399999999 L 1385.2851999999996 924.19336 L 1401.4804999999997 948.09961 C 1425.2451999999996 983.9725 1441.0087999999996 1022.7495 1449.9081999999996 1062.6797 L 1455.7636999999995 1090.6914 L 1553.0448999999994 1090.0996 L 1553.0448999999994 1160.6895 L 1456.3065999999994 1161.2852 L 1450.7499999999995 1189.2969 C 1442.5901999999996 1230.4276 1426.5648999999996 1269.5910000000001 1403.4511999999995 1304.6953 L 1387.6483999999996 1328.7012000000002 L 1458.9061999999997 1398.9238000000003 L 1408.8202999999996 1449.2031000000002 L 1337.5546999999997 1378.9375000000002 L 1313.8651999999997 1394.6758000000002 C 1277.5899999999997 1418.3823000000002 1238.2405999999996 1434.7985 1198.5409999999997 1442.8867000000002 L 1170.3964999999996 1448.5078000000003 L 1170.3964999999996 1550.7227000000003 C 1151.1554999999996 1550.7697000000003 1130.1655999999996 1550.7397000000003 1099.0272999999995 1550.6957000000002 L 1098.9822999999994 1449.2465000000002 L 1070.7107999999994 1443.7250000000001 C 1029.3806999999995 1435.6542000000002 989.8875999999993 1419.6875000000002 954.7635699999994 1396.6586000000002 L 931.0096699999993 1381.0844000000002 L 859.4686499999993 1452.2953000000002 L 808.8436499999993 1402.5375000000001 L 880.4842799999993 1331.1762 L 864.1366199999993 1307.1723000000002 C 840.3497899999993 1271.3781000000001 824.6137199999993 1232.5600000000002 815.6991199999993 1192.6762 L 809.8495099999993 1164.7504000000001 L 710.2850599999994 1165.1059 L 710.2850599999994 1094.4457 L 809.3534199999993 1094.2641 L 814.9139599999993 1066.0961000000002 C 823.0235399999993 1025.0112000000001 839.0841299999993 985.8442300000002 862.1580999999993 950.8011800000002 L 877.9432599999993 926.8265700000002 L 808.3377899999994 858.0648500000002 L 858.4315399999994 807.6800900000002 L 928.1639599999994 876.5726700000001 L 951.8944299999994 860.7386800000002 C 988.2042899999993 836.9689600000002 1026.7352999999994 821.1972900000002 1067.3748999999993 812.4242300000002 L 1095.3357999999994 806.6195400000001 L 1095.0838999999994 709.8324300000002 Z M 0 0 M 1132.2499999999998 967.03516 C 1045.6030999999998 967.03516 974.6113299999997 1038.0288 974.6113299999997 1124.6758 C 974.6113299999997 1211.3228 1045.6030999999998 1282.3125 1132.2499999999998 1282.3125 C 1218.8968999999997 1282.3125 1289.8886999999997 1211.3228 1289.8886999999997 1124.6758 C 1289.8886999999997 1038.0288 1218.8968999999997 967.03516 1132.2499999999998 967.03516 Z M 0 0 M 1132.2499999999998 1037.0352 C 1181.0661999999998 1037.0352 1219.8886999999997 1075.8597 1219.8886999999997 1124.6758 C 1219.8886999999997 1173.4919 1181.0661999999998 1212.3125 1132.2499999999998 1212.3125 C 1083.4337999999998 1212.3125 1044.6132999999998 1173.4919 1044.6132999999998 1124.6758 C 1044.6132999999998 1075.8597 1083.4337999999998 1037.0352 1132.2499999999998 1037.0352 Z"/></g></g></g><g transform="matrix(1,0,0,1,35,24)"><text fill="#000000" stroke="none" font-family="Open Sans" font-size="12pt" font-style="normal" font-weight="normal" text-decoration="normal" x="36.26953125" y="12" text-anchor="middle" dominant-baseline="alphabetic">  Throw    </text><text fill="#000000" stroke="none" font-family="Open Sans" font-size="12pt" font-style="normal" font-weight="normal" text-decoration="normal" x="36.26953125" y="27" text-anchor="middle" dominant-baseline="alphabetic">Exception</text></g></g><g id="_3" bpmn2nodeid="_3" transform="matrix(1,0,0,1,648,125)"><g><path fill="none" stroke="none"/></g><g transform="matrix(0.125,0,0,0.125,0,0)"><g transform="matrix(1,0,0,1,0,0)"><path fill="#fce7e7" stroke="none" id="_3?shapeType=BACKGROUND" paint-order="stroke fill markers" d=" M 0 0 M 444 224 C 444 263.9 434.2 300.8 414.4 334.5 C 394.7 368.2 368 394.9 334.4 414.5 C 300.79999999999995 434.1 263.9 444 224 444 C 184.10000000000002 444 147.2 434.2 113.5 414.4 C 79.8 394.7 53.1 368 33.5 334.4 C 13.899999999999999 300.79999999999995 4 263.9 4 224 C 4 184.10000000000002 13.8 147.2 33.6 113.5 C 53.400000000000006 79.80000000000001 80.1 53.1 113.6 33.5 C 147.1 13.899999999999999 184.1 4 224 4 C 263.9 4 300.8 13.8 334.5 33.6 C 368.2 53.400000000000006 394.9 80.1 414.5 113.6 C 434.1 147.1 444 184.1 444 224 Z"/></g><g><g transform="matrix(1,0,0,1,0,0)"><g transform="matrix(1,0,0,1,0,0)"><path fill="#a30000" stroke="none" id="_3?shapeType=BORDER&amp;renderType=FILL" paint-order="stroke fill markers" d=" M 0 0 M 224 0 C 100.3 0 0 100.3 0 224 C 0 347.7 100.3 448 224 448 C 347.7 448 448 347.7 448 224 C 448 100.30000000000001 347.7 0 224 0 Z M 0 0 M 224 400 C 126.8 400 48 321.2 48 224 C 48 126.80000000000001 126.8 48 224 48 C 321.2 48 400 126.8 400 224 C 400 321.2 321.2 400 224 400 Z"/></g></g></g><g><g transform="matrix(1,0,0,1,0,0)"><g transform="matrix(1,0,0,1,0,0)"><path fill="#a30000" stroke="none" id="_3undefined" paint-order="stroke fill markers" d=" M 0 0 M 320.2 220.7 C 320.2 238.1 315.9 254.2 307.3 268.9 C 298.7 283.59999999999997 287.1 295.29999999999995 272.40000000000003 303.79999999999995 C 257.70000000000005 312.4 241.60000000000002 316.69999999999993 224.20000000000005 316.69999999999993 C 206.80000000000007 316.69999999999993 190.70000000000005 312.3999999999999 176.00000000000006 303.79999999999995 C 161.30000000000007 295.19999999999993 149.70000000000005 283.59999999999997 141.10000000000005 268.9 C 132.50000000000006 254.2 128.30000000000004 238.09999999999997 128.30000000000004 220.7 C 128.30000000000004 203.3 132.60000000000005 187.2 141.20000000000005 172.5 C 149.80000000000004 157.8 161.40000000000003 146.1 176.10000000000005 137.5 C 190.80000000000004 128.9 206.90000000000006 124.7 224.30000000000007 124.7 C 241.70000000000007 124.7 257.80000000000007 129 272.50000000000006 137.6 C 287.20000000000005 146.2 298.90000000000003 157.9 307.40000000000003 172.5 C 316 187.2 320.2 203.3 320.2 220.7 Z"/></g></g></g></g><g transform="matrix(1,0,0,1,-34.01953125,61)"><text fill="#000000" stroke="none" font-family="Open Sans" font-size="12pt" font-style="normal" font-weight="normal" text-decoration="normal" x="62.01953125" y="12" text-anchor="middle" dominant-baseline="alphabetic">Fin de Processus</text></g></g><g id="_1-_2" bpmn2nodeid="_1-_2"><g><path fill="none" stroke="#000000" paint-order="fill stroke markers" d=" M 258 153 L 359.5 153" stroke-miterlimit="10" stroke-dasharray=""/></g><g transform="matrix(1,0,0,1,258,153)"/><g transform="matrix(6.123233995736766e-17,1,-1,6.123233995736766e-17,374.5,148)"><path fill="#000000" stroke="#000000" paint-order="fill stroke markers" d=" M 10 15 L 0 15 L 5 0 Z" stroke-miterlimit="10" stroke-dasharray=""/></g><g transform="matrix(1,0,0,1,258,143)"/></g><g id="_2-_3" bpmn2nodeid="_2-_3"><g><path fill="none" stroke="#000000" paint-order="fill stroke markers" d=" M 515.5 153 L 633 153" stroke-miterlimit="10" stroke-dasharray=""/></g><g transform="matrix(1,0,0,1,515.5,153)"/><g transform="matrix(6.123233995736766e-17,1,-1,6.123233995736766e-17,648,148)"><path fill="#000000" stroke="#000000" paint-order="fill stroke markers" d=" M 10 15 L 0 15 L 5 0 Z" stroke-miterlimit="10" stroke-dasharray=""/></g><g transform="matrix(1,0,0,1,515.5,143)"/></g><g id="_X-1-_X_2" bpmn2nodeid="_X-1-_X_2"><g><path fill="none" stroke="#000000" paint-order="fill stroke markers" d=" M 257.5 453.9017543859649 L 357.0000923352508 453.552631254964" stroke-miterlimit="10" stroke-dasharray=""/></g><g transform="matrix(1,0,0,1,257.5,453.9017543859649)"/><g transform="matrix(0.0035087503309342125,0.9999938443166113,-0.9999938443166113,0.0035087503309342125,371.98245624834533,448.50003077841694)"><path fill="#000000" stroke="#000000" paint-order="fill stroke markers" d=" M 10 15 L 0 15 L 5 0 Z" stroke-miterlimit="10" stroke-dasharray=""/></g><g transform="matrix(1,0,0,1,257.53508750330934,443.7009387498164)"/></g><g id="_X-2-_X_3" bpmn2nodeid="_X-2-_X_3"><g><path fill="none" stroke="#000000" paint-order="fill stroke markers" d=" M 518 453.5 L 632.500111803881 453.94208537376016" stroke-miterlimit="10" stroke-dasharray=""/></g><g transform="matrix(1,0,0,1,518,453.5)"/><g transform="matrix(-0.0038609750826556675,0.9999925464079276,-0.9999925464079276,-0.0038609750826556675,647.5193048754132,449.00003726796035)"><path fill="#000000" stroke="#000000" paint-order="fill stroke markers" d=" M 10 15 L 0 15 L 5 0 Z" stroke-miterlimit="10" stroke-dasharray=""/></g><g transform="matrix(1,0,0,1,518.0386097508266,443.7500745359207)"/></g><g transform="matrix(1,0,0,1,161.5,360)"/><g transform="matrix(1,0,0,1,201.5,426)"/><g transform="matrix(1,0,0,1,372,407)"/><g transform="matrix(1,0,0,1,647.5,426)"/><g transform="matrix(1,0,0,1,202,125)"/><g transform="matrix(1,0,0,1,374.5,114)"/><g transform="matrix(1,0,0,1,648,125)"/></g></g></svg>